<svg width="44" height="26" viewBox="0 0 44 26" fill="none" xmlns="http://www.w3.org/2000/svg">
<path d="M43.41 12.89C43.41 20.009 37.6394 25.78 30.5209 25.78C23.4025 25.78 17.6319 20.009 17.6319 12.89C17.6319 5.77108 23.4025 3.05176e-05 30.5209 3.05176e-05C37.6394 3.05176e-05 43.41 5.77108 43.41 12.89Z" fill="black"/>
<path d="M6.7898 12.887C6.7898 18.8819 11.6493 23.7417 17.6437 23.7417V2.03224C11.6493 2.03224 6.7898 6.89207 6.7898 12.887Z" fill="black"/>
<path d="M0 12.886C0 16.6329 3.03717 19.6703 6.78371 19.6703V6.10184C3.03717 6.10184 0 9.13923 0 12.886Z" fill="black"/>
</svg>
